<svg width="10" height="10" viewBox="0 0 10 10" fill="none" xmlns="http://www.w3.org/2000/svg">
<g clip-path="url(#clip0_429_30)">
<path d="M9.65714 4.45061C9.97535 4.18543 10.0183 3.71251 9.75317 3.3943C9.48799 3.07609 9.01507 3.0331 8.69686 3.29827L9.65714 4.45061ZM5.1995 7.18903L4.71936 7.76519C4.99749 7.99697 5.4015 7.99697 5.67964 7.76519L5.1995 7.18903ZM1.70213 3.29827C1.38393 3.0331 0.911002 3.07609 0.645829 3.3943C0.380656 3.71251 0.423649 4.18543 0.741856 4.4506L1.70213 3.29827ZM8.69686 3.29827L4.71936 6.61286L5.67964 7.76519L9.65714 4.45061L8.69686 3.29827ZM5.67964 6.61286L1.70213 3.29827L0.741856 4.4506L4.71936 7.76519L5.67964 6.61286ZM13.25 5C13.25 9.55635 9.55635 13.25 5 13.25V14.75C10.3848 14.75 14.75 10.3848 14.75 5H13.25ZM5 13.25C0.443651 13.25 -3.25 9.55635 -3.25 5H-4.75C-4.75 10.3848 -0.384776 14.75 5 14.75V13.25ZM-3.25 5C-3.25 0.443651 0.443651 -3.25 5 -3.25V-4.75C-0.384776 -4.75 -4.75 -0.384776 -4.75 5H-3.25ZM5 -3.25C9.55635 -3.25 13.25 0.443651 13.25 5H14.75C14.75 -0.384776 10.3848 -4.75 5 -4.75V-3.25Z" fill="#1D2939"/>
</g>
<defs>
<clipPath id="clip0_429_30">
<rect width="10" height="10" fill="white"/>
</clipPath>
</defs>
</svg>
