<svg width="24" height="24" viewBox="0 0 24 24" fill="none" xmlns="http://www.w3.org/2000/svg">
<path d="M8.414 12.657L12.364 16.607C12.5417 16.7964 12.6386 17.0476 12.6344 17.3073C12.6302 17.5669 12.5251 17.8148 12.3414 17.9984C12.1577 18.182 11.9098 18.2869 11.6501 18.2909C11.3904 18.2949 11.1393 18.1978 10.95 18.02L5.293 12.364C5.19981 12.2713 5.12586 12.1612 5.0754 12.0399C5.02494 11.9185 4.99896 11.7884 4.99896 11.657C4.99896 11.5256 5.02494 11.3955 5.0754 11.2741C5.12586 11.1528 5.19981 11.0427 5.293 10.95L10.95 5.293C11.0422 5.19749 11.1526 5.1213 11.2746 5.0689C11.3966 5.01649 11.5278 4.9889 11.6606 4.98775C11.7934 4.98659 11.9251 5.01189 12.048 5.06218C12.1708 5.11246 12.2825 5.18671 12.3764 5.2806C12.4703 5.37449 12.5445 5.48615 12.5948 5.60904C12.6451 5.73194 12.6704 5.86362 12.6692 5.9964C12.6681 6.12918 12.6405 6.2604 12.5881 6.3824C12.5357 6.50441 12.4595 6.61475 12.364 6.707L8.414 10.657H18C18.2652 10.657 18.5196 10.7624 18.7071 10.9499C18.8946 11.1374 19 11.3918 19 11.657C19 11.9222 18.8946 12.1766 18.7071 12.3641C18.5196 12.5516 18.2652 12.657 18 12.657H8.414Z" fill="black"/>
</svg>
