<svg width="51" height="52" viewBox="0 0 51 52" fill="none" xmlns="http://www.w3.org/2000/svg">
<path d="M21.6325 36.8507C21.8875 36.8507 22.0809 36.8421 22.2084 36.8247C22.3579 36.7938 22.4928 36.7121 22.5909 36.5929C22.7184 36.4564 22.7821 36.2592 22.7821 35.9992L22.7736 34.7924C22.7672 34.0232 22.7651 33.4122 22.7651 32.9637L22.3656 33.0352C22.0459 33.0865 21.7222 33.1069 21.3987 33.0959C20.9924 33.0886 20.5873 33.0472 20.1875 32.9724C19.7633 32.8917 19.364 32.709 19.023 32.4394C18.6655 32.1636 18.3987 31.7835 18.258 31.3496L18.0837 30.9401C17.9372 30.6176 17.7531 30.3142 17.5355 30.0366C17.3401 29.7518 17.0798 29.5198 16.7769 29.3606L16.6557 29.2739C16.5723 29.2112 16.4967 29.1385 16.4305 29.0572C16.3662 28.9834 16.3132 28.9001 16.2732 28.8102C16.2392 28.7279 16.2669 28.6586 16.3582 28.6066C16.5186 28.5408 16.6916 28.5134 16.864 28.5264L17.2125 28.5806C17.4462 28.6261 17.7331 28.7691 18.0752 29.0052C18.4152 29.2436 18.6979 29.5491 18.9189 29.9282C19.1866 30.4136 19.5075 30.7841 19.8857 31.0376C20.2196 31.2776 20.6163 31.4104 21.0247 31.4189C21.4072 31.4189 21.7387 31.3907 22.0171 31.3322C22.2881 31.2749 22.5513 31.1847 22.8012 31.0636C22.9054 30.2727 23.188 29.6617 23.6512 29.2371C23.0498 29.1764 22.4538 29.0692 21.8684 28.9164C21.2967 28.7557 20.747 28.5228 20.2321 28.2231C19.6929 27.9248 19.2163 27.5213 18.8296 27.0357C18.4599 26.5612 18.156 25.9416 17.9159 25.1724C17.6655 24.3083 17.5458 23.4104 17.561 22.5096C17.561 21.0796 18.02 19.8597 18.9359 18.8544C18.5066 17.7776 18.547 16.5707 19.057 15.2339C19.3949 15.1256 19.8942 15.2057 20.5551 15.4722C21.216 15.7387 21.7026 15.9662 22.0086 16.1569C22.3167 16.3454 22.5611 16.5036 22.7481 16.6336C23.8365 16.3254 24.9612 16.1708 26.0907 16.1742C27.2382 16.1742 28.3539 16.3259 29.4334 16.6357L30.0921 16.2089C30.5469 15.9272 31.0802 15.6651 31.6944 15.4289C32.3106 15.1906 32.7802 15.1256 33.1054 15.2339C33.6281 16.5707 33.6749 17.7776 33.2435 18.8522C34.1615 19.8597 34.6205 21.0774 34.6205 22.5096C34.6205 23.5149 34.5015 24.4054 34.2635 25.1811C34.0255 25.9567 33.7174 26.5764 33.3412 27.0444C32.9482 27.5252 32.4694 27.9259 31.9302 28.2252C31.4154 28.5251 30.8657 28.758 30.294 28.9186C29.7078 29.0708 29.1111 29.1773 28.509 29.2371C29.1125 29.7679 29.4142 30.6086 29.4142 31.7569V35.9971C29.4142 36.1986 29.444 36.3611 29.5014 36.4867C29.5284 36.5466 29.5669 36.6003 29.6148 36.6446C29.6626 36.6889 29.7187 36.7229 29.7797 36.7446C29.9072 36.7901 30.022 36.8204 30.1197 36.8312C30.2196 36.8442 30.3599 36.8507 30.5447 36.8507H21.6346H21.6325Z" fill="black"/>
<path d="M25.5 43.3335C30.0087 43.3335 34.3327 41.5073 37.5208 38.2567C40.7089 35.0061 42.5 30.5972 42.5 26.0002C42.5 21.4031 40.7089 16.9943 37.5208 13.7436C34.3327 10.493 30.0087 8.66683 25.5 8.66683C20.9913 8.66683 16.6673 10.493 13.4792 13.7436C10.2911 16.9943 8.5 21.4031 8.5 26.0002C8.5 30.5972 10.2911 35.0061 13.4792 38.2567C16.6673 41.5073 20.9913 43.3335 25.5 43.3335ZM25.5 47.6668C13.7636 47.6668 4.25 37.9667 4.25 26.0002C4.25 14.0337 13.7636 4.3335 25.5 4.3335C37.2364 4.3335 46.75 14.0337 46.75 26.0002C46.75 37.9667 37.2364 47.6668 25.5 47.6668Z" fill="black"/>
</svg>
