<svg width="52" height="52" viewBox="0 0 52 52" fill="none" xmlns="http://www.w3.org/2000/svg">
<path d="M34.7035 4.3335H17.2185C13.802 4.33751 10.5266 5.69664 8.11096 8.11267C5.69533 10.5287 4.33675 13.8043 4.33331 17.2208L4.33331 34.7058C4.33733 38.1223 5.69646 41.3977 8.11249 43.8134C10.5285 46.229 13.8041 47.5876 17.2206 47.591H34.7056C38.1221 47.587 41.3975 46.2279 43.8132 43.8118C46.2288 41.3958 47.5874 38.1202 47.5908 34.7037V17.2187C47.5868 13.8022 46.2277 10.5268 43.8116 8.11114C41.3956 5.69551 38.12 4.33694 34.7035 4.3335V4.3335ZM43.2402 34.7037C43.2402 35.8247 43.0193 36.9348 42.5903 37.9705C42.1613 39.0062 41.5325 39.9473 40.7398 40.74C39.9471 41.5327 39.006 42.1615 37.9703 42.5905C36.9346 43.0195 35.8245 43.2403 34.7035 43.2403H17.2185C14.9548 43.2398 12.784 42.3401 11.1835 40.7392C9.58308 39.1384 8.68398 36.9674 8.68398 34.7037V17.2187C8.68455 14.955 9.5842 12.7842 11.1851 11.1837C12.786 9.58326 14.957 8.68416 17.2206 8.68416H34.7056C36.9693 8.68474 39.1401 9.58439 40.7406 11.1853C42.341 12.7861 43.2402 14.9571 43.2402 17.2208V34.7058V34.7037Z" fill="black"/>
<path d="M25.961 14.7744C22.9958 14.779 20.1533 15.9591 18.0568 18.0561C15.9602 20.153 14.7807 22.9957 14.7767 25.9609C14.7801 28.9269 15.9597 31.7705 18.0568 33.8679C20.1539 35.9654 22.9972 37.1456 25.9632 37.1496C28.9295 37.1461 31.7734 35.9662 33.871 33.8687C35.9685 31.7712 37.1484 28.9273 37.1518 25.9609C37.1473 22.9949 35.9665 20.1518 33.8687 18.0552C31.7708 15.9585 28.927 14.7794 25.961 14.7766V14.7744ZM25.961 32.7989C24.148 32.7989 22.4093 32.0787 21.1273 30.7967C19.8454 29.5148 19.1252 27.7761 19.1252 25.9631C19.1252 24.1501 19.8454 22.4114 21.1273 21.1294C22.4093 19.8474 24.148 19.1272 25.961 19.1272C27.774 19.1272 29.5127 19.8474 30.7947 21.1294C32.0766 22.4114 32.7968 24.1501 32.7968 25.9631C32.7968 27.7761 32.0766 29.5148 30.7947 30.7967C29.5127 32.0787 27.774 32.7989 25.961 32.7989Z" fill="black"/>
<path d="M37.1713 17.539C38.6515 17.539 39.8515 16.3391 39.8515 14.8589C39.8515 13.3787 38.6515 12.1787 37.1713 12.1787C35.6911 12.1787 34.4911 13.3787 34.4911 14.8589C34.4911 16.3391 35.6911 17.539 37.1713 17.539Z" fill="black"/>
</svg>
