<svg width="51" height="52" viewBox="0 0 51 52" fill="none" xmlns="http://www.w3.org/2000/svg">
<path d="M36.125 28.4484V36.4586H31.5711V28.9836C31.5711 27.1072 30.9124 25.8267 29.2634 25.8267C28.0054 25.8267 27.2552 26.6891 26.9259 27.5254C26.8069 27.8244 26.775 28.2404 26.775 28.6564V36.4586H22.219C22.219 36.4586 22.2806 23.8009 22.219 22.4901H26.775V24.4682L26.7453 24.5137H26.775V24.4704C27.3806 23.5171 28.4601 22.1607 30.8805 22.1607C33.8767 22.1607 36.125 24.1584 36.125 28.4484ZM17.4526 15.7539C15.895 15.7539 14.875 16.7982 14.875 18.1676C14.875 19.5109 15.8652 20.5834 17.3931 20.5834H17.4229C19.0124 20.5834 20.0005 19.5087 20.0005 18.1676C19.9708 16.7982 19.0124 15.7539 17.4526 15.7539ZM15.1449 36.4586H19.7009V22.4901H15.1449V36.4586Z" fill="black"/>
<path d="M25.5 43.3335C30.0087 43.3335 34.3327 41.5073 37.5208 38.2567C40.7089 35.006 42.5 30.5972 42.5 26.0002C42.5 21.4031 40.7089 16.9943 37.5208 13.7436C34.3327 10.493 30.0087 8.66683 25.5 8.66683C20.9913 8.66683 16.6673 10.493 13.4792 13.7436C10.2911 16.9943 8.5 21.4031 8.5 26.0002C8.5 30.5972 10.2911 35.006 13.4792 38.2567C16.6673 41.5073 20.9913 43.3335 25.5 43.3335ZM25.5 47.6668C13.7636 47.6668 4.25 37.9667 4.25 26.0002C4.25 14.0337 13.7636 4.3335 25.5 4.3335C37.2364 4.3335 46.75 14.0337 46.75 26.0002C46.75 37.9667 37.2364 47.6668 25.5 47.6668Z" fill="black"/>
</svg>
