<svg width="52" height="52" viewBox="0 0 52 52" fill="none" xmlns="http://www.w3.org/2000/svg">
<g clip-path="url(#clip0_16_184)">
<path d="M26 0C40.3598 0 52 11.6402 52 26C52 40.3598 40.3598 52 26 52C11.6402 52 0 40.3598 0 26C0 11.6402 11.6402 0 26 0ZM37.5492 15.6C36.5586 15.6182 35.0376 16.1382 27.7238 19.1412C22.5901 21.2844 17.4705 23.4615 12.3656 25.6724C11.1176 26.1638 10.4676 26.6422 10.4078 27.1102C10.2934 28.0098 11.6038 28.288 13.2522 28.8184C14.5964 29.25 16.406 29.7544 17.3472 29.7752C18.2 29.7934 19.1516 29.445 20.202 28.7352C27.378 23.9512 31.0778 21.5358 31.3118 21.4838C31.4756 21.4474 31.7018 21.4006 31.8578 21.5358C32.0112 21.671 31.9956 21.9258 31.9774 21.996C31.8474 22.5446 25.1108 28.5948 24.7234 28.9926L24.5362 29.1798C23.1062 30.5916 21.6632 31.5146 24.154 33.1344C26.4056 34.5982 27.716 35.5316 30.03 37.0344C31.512 37.9912 32.6742 39.1274 34.203 38.9896C34.9076 38.9246 35.633 38.272 36.0048 36.322C36.8758 31.72 38.5918 21.7412 38.987 17.628C39.0109 17.2868 38.9961 16.944 38.9428 16.6062C38.9107 16.3334 38.777 16.0828 38.5684 15.9042C38.2538 15.6494 37.765 15.5974 37.5492 15.6Z" fill="black"/>
</g>
<defs>
<clipPath id="clip0_16_184">
<rect width="52" height="52" fill="white"/>
</clipPath>
</defs>
</svg>
